<svg id="Capa_1" enable-background="new 0 0 512 512" height="512" viewBox="0 0 512 512" width="512" xmlns="http://www.w3.org/2000/svg"><g><path d="m180.465 56.142c26.841 26.841 33.511 62.12 33.854 89.342.324 25.679-20.59 46.592-46.269 46.269-27.222-.343-62.501-7.013-89.342-33.854s-33.511-62.12-33.854-89.342c-.324-25.679 20.59-46.593 46.269-46.269 27.223.343 62.501 7.013 89.342 33.854z" fill="#b0da87"/><path d="m157.083 148.637c-2.634 0-5.188-1.389-6.561-3.854-13.154-23.638-31.437-45.269-54.341-64.293-3.187-2.646-3.624-7.375-.978-10.562 2.647-3.188 7.376-3.623 10.562-.978 24.337 20.214 43.805 43.273 57.865 68.537 2.014 3.62.713 8.186-2.907 10.201-1.154.644-2.406.949-3.64.949z" fill="#89d47f"/><path d="m318.709 171.264v-27.009c-8.797-25.355 12.465-80.38 29.845-111.478 2.739-4.9-.982-10.861-6.592-10.662-21.947.78-40.523 8.378-50.647 16.501-3.294 2.643-8.154 1.787-10.448-1.759-5.136-7.94-12.722-18.057-20.171-24.594-2.68-2.352-6.714-2.352-9.394 0-7.449 6.538-15.036 16.654-20.171 24.594-2.294 3.546-7.154 4.402-10.448 1.759-10.124-8.123-28.7-15.722-50.647-16.501-5.61-.199-9.331 5.761-6.592 10.662 17.38 31.098 38.642 86.123 29.845 111.478v27.009z" fill="#eda1ab"/><path d="m193.291 171.264h125.419v-27.009c-5.743-16.553 1.328-45.75 11.764-72.681-22.368.605-46.059 4.533-70.53 11.717-2.633.773-5.366.74-7.886 0-24.471-7.184-48.162-11.112-70.53-11.717 10.436 26.931 17.507 56.128 11.764 72.681v27.009z" fill="#e68a97"/><path d="m243.351 112.946c8.258 2.424 17.04 2.424 25.298 0 145.82-42.811 223.436 50.753 223.436 169.295 0 110.199-118.058 187.293-236.085 187.293s-236.085-77.094-236.085-187.293c0-118.543 77.616-212.106 223.436-169.295z" fill="#eda1ab"/><path d="m201.39 461.242c11.916 32.75 32.826 40.257 54.61 40.257s42.694-7.507 54.61-40.257z" fill="#f6ca8e"/><g fill="#e68a97"><path d="m190.993 103.007c-111.963-8.629-171.078 75.785-171.078 179.234 0 110.199 118.058 187.293 236.085 187.293 23.374 0 46.746-3.035 69.206-8.74-183.689-29.514-207.502-282.825-134.213-357.787z"/><path d="m453.051 382.669c17.248 17.248 20.041 29.293 3.122 46.212s-28.964 14.126-46.212-3.122-21.584-40.876-9.685-52.776 35.527-7.563 52.775 9.686z"/><path d="m454.44 247.449c17.248-17.248 29.294-20.041 46.212-3.122 16.919 16.919 14.126 28.964-3.122 46.212s-40.877 21.584-52.776 9.685c-11.898-11.898-7.562-35.527 9.686-52.775z"/></g><path d="m57.559 286.567c-17.248-17.248-29.294-20.04-46.212-3.122-16.919 16.919-14.126 28.964 3.122 46.212s40.877 21.584 52.776 9.685c11.899-11.898 7.563-35.527-9.686-52.775z" fill="#eda1ab"/><g><g><path d="m202.172 237.116c.007 13.843-14.079 25.072-31.463 25.081-17.383.009-31.481-11.206-31.488-25.049s14.079-25.073 31.463-25.082c17.383-.008 31.481 11.207 31.488 25.05z" fill="#fff"/><path d="m309.828 237.062c.007 13.843 14.105 25.058 31.488 25.049s31.47-11.238 31.463-25.081-14.105-25.059-31.488-25.05c-17.383.01-31.47 11.239-31.463 25.082z" fill="#fff"/><path d="m286.848 225.742c-.01-19.068-13.824-20.852-30.864-20.844-17.04.009-30.852 1.807-30.843 20.875.01 19.067 13.831 34.518 30.871 34.509 17.04-.008 30.845-15.472 30.836-34.54z" fill="#565e75"/></g><g fill="#565e75"><path d="m323.682 215.879c-.005 0-.01 0-.015 0-4.142-.008-7.494-3.372-7.486-7.515l.023-12.362c.008-4.137 3.365-7.485 7.5-7.485h.015c4.142.008 7.494 3.372 7.486 7.515l-.023 12.362c-.009 4.136-3.365 7.485-7.5 7.485z"/><path d="m208.74 214.747c-.006 0-.011 0-.017 0-4.142-.009-7.493-3.374-7.484-7.516.008-3.854-3.12-6.994-6.972-7.003-.005 0-.01 0-.016 0-1.86 0-3.61.723-4.929 2.035-1.323 1.317-2.053 3.07-2.057 4.936-.009 4.137-3.365 7.484-7.499 7.484-.006 0-.011 0-.017 0-4.142-.009-7.493-3.374-7.484-7.516.013-5.873 2.312-11.39 6.474-15.534 4.15-4.132 9.658-6.405 15.512-6.405h.05c12.123.026 21.965 9.911 21.939 22.034-.01 4.137-3.366 7.485-7.5 7.485z"/></g></g></g></svg>